<?xml version="1.0" standalone="no"?>
<!DOCTYPE svg PUBLIC "-//W3C//DTD SVG 1.1//EN" "http://www.w3.org/Graphics/SVG/1.1/DTD/svg11.dtd" >
<svg xmlns="http://www.w3.org/2000/svg">
<metadata>Generated by IcoMoon</metadata>
<defs>
<font id="icomoon" horiz-adv-x="512">
<font-face units-per-em="512" ascent="480" descent="-32" />
<missing-glyph horiz-adv-x="512" />
<glyph unicode="&#x20;" d="" horiz-adv-x="256" />
<glyph unicode="&#xe600;" d="M273.279 207.622h-63.692v-170.147h-63.953v170.147h-45.104v61.092h45.104c0 0 0 24.566 0 51.735 0 41.075 26.256 78.769 87.347 78.769 24.699 0 42.895-2.339 42.895-2.339l-1.563-57.063c0 0-18.718 0.13-39.125 0.13-21.966 0-25.737-10.139-25.737-27.037 0-1.818 0-2.601 0-2.861 0 0 0 0 0 0 0-4.681 0-16.637 0-41.334h66.553l-2.729-61.092z" horiz-adv-x="396" />
<glyph unicode="&#xe601;" d="M197.818 420.267c-108.218 0-195.879-87.726-195.879-195.879 0-108.218 87.725-195.879 195.879-195.879s195.879 87.726 195.879 195.879c0 108.153-87.726 195.879-195.879 195.879zM235.313 215.854h-31.677v-84.622h-31.806v84.622h-22.433v30.384h22.433c0 0 0 12.218 0 25.729 0 20.429 13.059 39.176 43.442 39.176 12.283 0 21.334-1.163 21.334-1.163l-0.776-28.38c0 0-9.309 0.065-19.459 0.065-10.925 0-12.8-5.042-12.8-13.447 0-0.905 0-1.293 0-1.422 0 0 0 0 0 0 0-2.327 0-8.274 0-20.558h33.099l-1.357-30.384z" horiz-adv-x="396" />
<glyph unicode="&#xe602;" d="M342.298 247.006c20.797 1.691 34.965 11.178 40.425 24.046-7.54-4.552-30.938-9.62-43.805-4.809-0.651 3.118-1.298 5.979-2.080 8.45-9.879 36.134-43.416 65.123-78.639 61.615 2.861 1.17 5.719 2.211 8.577 3.25 3.899 1.428 26.645 5.070 23.007 13.13-2.99 7.147-30.804-5.329-36.005-7.019 6.889 2.601 18.327 7.148 19.627 15.078-10.531-1.428-20.927-6.498-28.987-13.777 2.861 3.119 5.070 7.019 5.589 11.050-28.206-18.066-44.715-54.464-58.103-89.688-10.531 10.139-19.759 18.197-28.076 22.618-23.398 12.477-51.342 25.608-95.279 41.986-1.299-14.558 7.147-33.794 31.715-46.663-5.329 0.652-15.078-0.909-22.877-2.729 3.118-16.637 13.517-30.286 41.597-36.915-12.74-0.78-19.499-3.769-25.346-10.009 5.85-11.569 20.016-25.216 45.623-22.356-28.468-12.22-11.569-34.965 11.569-31.586-39.516-40.815-101.907-37.825-137.652-3.769 93.459-127.254 296.623-75.26 326.909 47.443 22.747-0.26 36.005 7.798 44.195 16.768-13-2.601-31.976-0.26-41.986 3.899z" horiz-adv-x="396" />
<glyph unicode="&#xe603;" d="M198.206 420.267c-108.218 0-195.879-87.726-195.879-195.879 0-108.218 87.725-195.879 195.879-195.879s195.879 87.726 195.879 195.879c0 108.153-87.726 195.879-195.879 195.879zM268.089 225.035c-15.063-61.026-116.105-86.885-162.586-23.596 17.778-17.002 48.808-18.489 68.46 1.875-11.507-1.681-19.911 9.632-5.754 15.709-12.736-1.358-19.846 5.365-22.691 11.119 2.974 3.103 6.27 4.59 12.606 4.978-13.964 3.297-19.071 10.085-20.687 18.359 3.879 0.905 8.727 1.681 11.378 1.357-12.218 6.4-16.485 15.968-15.774 23.208 21.851-8.081 35.75-14.61 47.386-20.881 4.137-2.198 8.792-6.141 13.964-11.248 6.659 17.519 14.869 35.62 28.897 44.606-0.258-2.004-1.357-3.944-2.78-5.495 3.944 3.62 9.18 6.142 14.416 6.853-0.582-3.944-6.27-6.142-9.762-7.499 2.586 0.841 16.42 6.982 17.907 3.491 1.81-3.943-9.503-5.818-11.442-6.529-1.422-0.452-2.909-1.034-4.267-1.616 17.519 1.745 34.263-12.671 39.111-30.643 0.323-1.293 0.711-2.715 1.034-4.202 6.4-2.392 18.036 0.13 21.786 2.392-2.715-6.4-9.762-11.119-20.105-11.959 4.978-2.069 14.416-3.232 20.881-2.069-4.072-4.332-10.666-8.339-21.98-8.21z" horiz-adv-x="396" />
<glyph unicode="&#xe604;" d="M426 480h-340c-47.3 0-86-38.7-86-86v-340c0-47.3 38.7-86 86-86h340c47.3 0 86 38.7 86 86v340c0 47.3-38.7 86-86 86zM192 64h-64v224h64v-224zM160 320c-17.673 0-32 14.327-32 32s14.327 32 32 32 32-14.327 32-32-14.327-32-32-32zM416 64h-64v128c0 17.673-14.327 32-32 32s-32-14.327-32-32v-128h-64v224h64v-39.736c13.199 18.131 33.376 39.736 56 39.736 39.764 0 72-35.817 72-80v-144z" />
<glyph unicode="&#xe605;" d="M289.714 315.714q48.857 0 76.572-24.428t27.714-72.714v-167.428q0-4-3-7t-7-3h-72q-4 0-7 3t-3 7v151.143q0 20.286-7.572 29.714t-27.286 9.428q-25.143 0-35.286-14.714t-10.143-41v-134.572q0-4-3-7t-7.286-3h-70.285q-4 0-7 3t-3 7v248q0 4 3 7t7 3h68.286q3.714 0 6-1.428t3-5.286 0.857-5.143 0.143-6.428q26.572 24.857 70.286 24.857zM82.857 309.143q4 0 7-3t3-7v-248q0-4-3-7t-7-3h-70.285q-4 0-7 3t-3 7v248q0 4 3 7t7 3h70.285zM47.715 432.857q19.715 0 33.715-14t14-33.714-14-33.714-33.715-14-33.715 14-14 33.714 14 33.714 33.715 14z" horiz-adv-x="393" />
<glyph unicode="&#xe606;" d="M290.016 151.459h-68.673v-26.837l-14.756-15.343h98.828l-15.397 15.978v26.202zM136.644 338.722v-175.825h238.711v175.825h-238.711zM350.623 193.937h-189.245v120.161h189.245v-120.161zM256 447.938c123.672 0 223.938-100.26 223.938-223.937 0-123.684-100.267-223.939-223.939-223.939-123.681 0-223.937 100.254-223.937 223.939 0 123.677 100.256 223.937 223.937 223.937z" />
<glyph unicode="&#xe607;" d="M256 447.938c-123.681 0-223.937-100.26-223.937-223.937 0-123.684 100.256-223.939 223.937-223.939 123.674 0 223.938 100.256 223.938 223.939 0 123.677-100.264 223.937-223.939 223.937zM400.284 251.019l-102.765-102.769-54.953 54.953-63.306-63.308-26.268 26.269-39.872-39.868-25.332 25.334 65.203 65.209 26.268-26.269 63.306 63.303 54.953-54.949 77.432 77.428-24.537 24.535h74.406v-74.403l-24.534 24.535z" />
<glyph unicode="&#xe608;" d="M479.938 224c0 123.681-100.264 223.935-223.935 223.935-123.685 0-223.94-100.253-223.94-223.935 0-123.672 100.255-223.935 223.94-223.935 123.672 0 223.936 100.263 223.936 223.935zM159.613 174.152l-16.549 28.954 109.644 84.815h4.133l110.156-84.815-16.548-28.954-95.156 68.26-95.679-68.26z" />
<glyph unicode="&#xe609;" d="M256 447.938c-123.683 0-223.939-100.26-223.939-223.938 0-123.685 100.256-223.94 223.939-223.94 123.673 0 223.938 100.256 223.938 223.94 0 123.679-100.265 223.938-223.939 223.938zM274.851 116.005h-37.62v37.62h37.62v-37.62zM271.531 177.776h-30.981l-10.332 154.349h51.644l-10.332-154.349z" />
<glyph unicode="&#xe60a;" d="M256 447.938c-123.681 0-223.937-100.26-223.937-223.937 0-123.684 100.256-223.939 223.937-223.939 123.672 0 223.938 100.255 223.938 223.939 0 123.677-100.267 223.937-223.939 223.937zM278.435 115.555h-40.794v40.795h40.794v-40.794zM278.341 179.164h-40.703c5.284 38.585 52.333 64.486 52.333 90.916 0 15.857-14.801 23.788-29.077 23.788-14.801 0-31.19-8.988-31.19-33.831h-40.168c0 44.933 36.473 72.417 75.063 72.417 37.531 0 67.127-23.257 67.127-61.315 0-43.875-43.873-58.675-53.385-91.975z" />
<glyph unicode="&#xe60b;" d="M256 447.938c-123.678 0-223.939-100.258-223.939-223.937 0-123.684 100.256-223.939 223.939-223.939 123.671 0 223.937 100.255 223.937 223.939 0.001 123.677-100.265 223.937-223.937 223.937zM367.969 206.232h-94.055v-94.053h-35.828v94.057h-94.054v35.831l94.053-0.002v94.052h35.829v-94.052l94.055-0.002v-35.831z" />
<glyph unicode="&#xe60c;" d="M255.999 447.938c-123.681 0-223.937-100.26-223.937-223.937 0-123.684 100.256-223.939 223.937-223.939 123.674 0 223.939 100.255 223.939 223.939 0.001 123.677-100.264 223.937-223.939 223.937zM329.021 221.228l-84.817-110.165-28.954 16.559 68.267 95.151-68.267 95.675 28.954 16.55 84.817-109.64v-4.13z" />
<glyph unicode="&#xe60d;" d="M256 447.937c-123.681 0-223.937-100.255-223.937-223.937s100.256-223.938 223.937-223.938c123.672 0 223.938 100.256 223.938 223.939s-100.267 223.937-223.939 223.937zM368.755 206.080l-225.511 0.010v35.829l225.511-0.009v-35.831z" />
<glyph unicode="&#xe60e;" d="M256 447.937c-123.681 0-223.937-100.255-223.937-223.937s100.256-223.938 223.937-223.938c123.672 0 223.938 100.256 223.938 223.939s-100.267 223.937-223.939 223.937zM332.936 121.729l-77.666 77.308-75.579-75.225-25.28 25.394 75.46 75.111-76.087 75.733 25.28 25.394 76.204-75.851 77.039 76.681 25.281-25.394-76.925-76.567 77.551-77.188-25.277-25.395z" />
<glyph unicode="&#xe60f;" d="M256 447.938c-123.683 0-223.937-100.26-223.937-223.937 0-123.684 100.254-223.939 223.937-223.939 123.672 0 223.938 100.255 223.938 223.939 0 123.677-100.267 223.937-223.939 223.937zM211.212 112.507c-8.043 0-14.569 6.526-14.569 14.569 0 8.049 6.525 14.572 14.569 14.572 8.047 0 14.572-6.524 14.572-14.572 0.002-8.043-6.524-14.569-14.572-14.569zM304.373 112.507c-8.045 0-14.568 6.526-14.568 14.569 0 8.049 6.524 14.572 14.568 14.572 8.047 0 14.574-6.524 14.574-14.572 0.001-8.043-6.526-14.569-14.574-14.569zM356.465 197.288h-149.286l3.442-20.805h133.11v-24.635h-154l-30.087 181.783h-19.581v24.633h40.47l7.548-45.619h168.38l0.001-115.357z" />
<glyph unicode="&#xe610;" d="M256 447.937c-123.681 0-223.937-100.255-223.937-223.937s100.256-223.938 223.937-223.938c123.671 0 223.937 100.256 223.937 223.939s-100.265 223.937-223.937 223.937zM392.868 222.757c-10.559-12.938-30.639-29.012-61.43-41.651 32.644-110.962-79.507-128.593-77.796-71.7 0-1.027-0.057 30.493-0.101 53.995-2.405 0.587-4.964 1.265-7.899 1.955-0.048-23.657-0.108-57.004-0.108-55.949 1.709-56.894-110.368-39.263-77.792 71.7-30.791 12.64-50.871 28.714-61.434 41.651-5.428 8.036 0.367 16.436 9.221 10.265 1.308-0.933 2.594-1.728 3.892-2.602l-0.001 115.602h263.173v-113.705c0.349 0.25 0.695 0.452 1.051 0.704 8.857 6.172 14.656-2.231 9.224-10.265zM144.053 216.713c35.239-15.563 65.144-12.486 82.069-11.953 7.698 0.385 12.675-1.32 15.681-4.487 0.524-0.445 1.076-0.927 1.648-1.466 3.455-3.204 6.837-6 10.133-8.339 0.668 9.084 5.76 14.975 19.473 14.293 17.377-0.548 48.43-3.844 84.901 13.188l0.001 103.442h-213.907v-104.678zM293.132 285.163c19.709 0 35.703-14.954 35.703-33.398 0-18.445-15.995-33.396-35.703-33.396s-35.697 14.954-35.697 33.397c0 18.444 15.991 33.397 35.697 33.397zM210.061 285.163c19.704 0 35.7-14.954 35.7-33.398 0-18.445-15.995-33.396-35.7-33.396-19.708 0-35.703 14.954-35.703 33.397 0 18.444 15.995 33.397 35.703 33.397z" />
<glyph unicode="&#xe611;" d="M256 447.937c-123.681 0-223.937-100.255-223.937-223.937s100.256-223.938 223.937-223.938c123.671 0 223.937 100.256 223.937 223.939s-100.265 223.937-223.937 223.937zM160.582 323.962l95.156-68.266 95.68 68.267 16.551-28.954-109.644-84.817h-4.137l-110.156 84.817 16.549 28.954zM368.755 124.033l-225.511 0.005v35.829l225.511-0.005v-35.829z" />
<glyph unicode="&#xe612;" d="M32.062 224c0-123.681 100.264-223.935 223.936-223.935 123.687 0 223.94 100.253 223.94 223.935 0 123.672-100.255 223.935-223.94 223.935-123.673 0-223.936-100.263-223.936-223.935zM352.383 273.848l16.55-28.954-109.644-84.815h-4.131l-110.156 84.815 16.551 28.954 95.155-68.26 95.678 68.26z" />
<glyph unicode="&#xe613;" d="M256 447.937c-123.681 0-223.937-100.255-223.937-223.937s100.256-223.938 223.937-223.938c123.672 0 223.938 100.256 223.938 223.939s-100.267 223.937-223.939 223.937zM379.76 123.964h-265.287v195.919h151.788v-35.681h-116.115v-124.56h193.931v46.923h35.683v-82.6zM397.527 242.234h-35.683v34.356l-68.372-68.372-25.219 25.228 68.527 68.52h-34.842v35.677h95.587l0.001-95.409z" />
<glyph unicode="&#xe614;" d="M290.016 151.459h-68.673v-26.837l-14.756-15.343h98.828l-15.397 15.978v26.202zM136.644 338.722v-175.825h238.711v175.825h-238.711zM350.623 193.937h-189.245v120.161h189.245v-120.161z" />
<glyph unicode="&#xe615;" d="M400.877 252.020l-102.997-103-55.076 55.075-63.448-63.448-26.328 26.327-39.961-39.957-25.389 25.391 65.35 65.356 26.328-26.328 63.448 63.446 55.076-55.073 77.607 77.603-24.593 24.589h74.572v-74.572l-24.589 24.592z" />
<glyph unicode="&#xe616;" d="M159.613 174.152l-16.549 28.954 109.644 84.815h4.133l110.156-84.815-16.548-28.954-95.156 68.26-95.679-68.26z" />
<glyph unicode="&#xe617;" d="M275.166 115.733h-37.714v37.714h37.714v-37.714zM271.837 177.661h-31.060l-10.357 154.735h51.773l-10.358-154.735z" />
<glyph unicode="&#xe618;" d="M329.143 242.286q0 52.857-37.572 90.428t-90.428 37.572-90.428-37.572-37.572-90.428 37.572-90.428 90.428-37.572 90.428 37.572 37.572 90.428zM475.428 4.572q0-14.857-10.857-25.714t-25.714-10.857q-15.428 0-25.714 10.857l-98 97.714q-51.143-35.428-114-35.428-40.857 0-78.143 15.857t-64.285 42.857-42.857 64.286-15.857 78.143 15.857 78.143 42.857 64.286 64.285 42.857 78.143 15.857 78.143-15.857 64.286-42.857 42.857-64.286 15.857-78.143q0-62.857-35.428-114l98-98q10.572-10.572 10.572-25.714z" horiz-adv-x="476" />
<glyph unicode="&#xe619;" d="M438.857 96v-36.572q0-7.428-5.428-12.857t-12.857-5.428h-402.286q-7.428 0-12.857 5.428t-5.428 12.857v36.572q0 7.428 5.428 12.857t12.857 5.428h402.286q7.428 0 12.857-5.428t5.428-12.857zM438.857 242.286v-36.572q0-7.428-5.428-12.857t-12.857-5.428h-402.286q-7.428 0-12.857 5.428t-5.428 12.857v36.572q0 7.428 5.428 12.857t12.857 5.429h402.286q7.428 0 12.857-5.428t5.428-12.857zM438.857 388.572v-36.572q0-7.428-5.428-12.857t-12.857-5.429h-402.286q-7.428 0-12.857 5.428t-5.428 12.857v36.571q0 7.429 5.428 12.857t12.857 5.428h402.286q7.428 0 12.857-5.428t5.428-12.857z" horiz-adv-x="439" />
<glyph unicode="&#xe61a;" d="M278.435 115.555h-40.794v40.795h40.794v-40.794zM278.341 179.164h-40.703c5.284 38.585 52.333 64.486 52.333 90.916 0 15.857-14.801 23.788-29.077 23.788-14.801 0-31.19-8.988-31.19-33.831h-40.168c0 44.933 36.473 72.417 75.063 72.417 37.531 0 67.127-23.257 67.127-61.315 0-43.875-43.873-58.675-53.385-91.975z" />
<glyph unicode="&#xe61b;" d="M367.969 206.232h-94.055v-94.053h-35.828v94.057h-94.054v35.831l94.053-0.002v94.052h35.829v-94.052l94.055-0.002v-35.831z" />
<glyph unicode="&#xe61c;" d="M329.021 221.228l-84.817-110.165-28.954 16.559 68.267 95.151-68.267 95.675 28.954 16.55 84.817-109.64v-4.13z" />
<glyph unicode="&#xe61d;" d="M368.755 206.080l-225.511 0.010v35.829l225.511-0.009v-35.831z" />
<glyph unicode="&#xe61e;" d="M332.936 121.729l-77.666 77.308-75.579-75.225-25.28 25.394 75.46 75.111-76.087 75.733 25.28 25.394 76.204-75.851 77.039 76.681 25.281-25.394-76.925-76.567 77.551-77.188-25.277-25.395z" />
<glyph unicode="&#xe61f;" d="M211.212 112.507c-8.043 0-14.569 6.526-14.569 14.569 0 8.049 6.525 14.572 14.569 14.572 8.047 0 14.572-6.524 14.572-14.572 0.002-8.043-6.524-14.569-14.572-14.569zM304.373 112.507c-8.045 0-14.568 6.526-14.568 14.569 0 8.049 6.524 14.572 14.568 14.572 8.047 0 14.574-6.524 14.574-14.572 0.001-8.043-6.526-14.569-14.574-14.569zM356.465 197.288h-149.286l3.442-20.805h133.11v-24.635h-154l-30.087 181.783h-19.581v24.633h40.47l7.548-45.619h168.38l0.001-115.357z" />
<glyph unicode="&#xe620;" d="M210.061 218.367c-19.708 0-35.703 14.954-35.703 33.397 0 18.445 15.995 33.399 35.703 33.399 19.704 0 35.7-14.954 35.7-33.399 0-18.442-15.995-33.397-35.7-33.397zM293.132 218.367c-19.707 0-35.697 14.954-35.697 33.397 0 18.445 15.991 33.399 35.697 33.399 19.709 0 35.703-14.954 35.703-33.399 0-18.442-15.993-33.397-35.703-33.397zM383.644 233.023c-0.356-0.252-0.7-0.455-1.051-0.704l0.001 113.705h-263.173v-115.603c-1.299 0.875-2.585 1.669-3.892 2.602-8.853 6.172-14.647-2.23-9.221-10.265 10.563-12.938 30.643-29.012 61.435-41.651-32.576-110.962 79.501-128.593 77.792-71.7 0-1.053 0.061 32.293 0.108 55.949 2.935-0.69 5.493-1.368 7.899-1.955 0.043-23.5 0.101-55.022 0.101-53.995-1.709-56.894 110.443-39.263 77.797 71.7 30.791 12.64 50.871 28.714 61.43 41.651 5.433 8.036-0.365 16.438-9.223 10.267zM357.961 217.947c-36.473-17.031-67.524-13.733-84.901-13.188-13.713 0.683-18.803-5.209-19.473-14.293-3.298 2.339-6.679 5.135-10.133 8.339-0.572 0.539-1.125 1.021-1.648 1.466-3.005 3.167-7.982 4.872-15.681 4.487-16.925-0.533-46.829-3.608-82.069 11.953l-0.001 104.679h213.907l0.001-103.443z" />
<glyph unicode="&#xe621;" d="M160.582 323.962l95.156-68.266 95.68 68.267 16.551-28.954-109.644-84.817h-4.137l-110.156 84.817 16.549 28.954zM368.755 124.033l-225.511 0.005v35.829l225.511-0.005v-35.829z" />
<glyph unicode="&#xe622;" d="M352.383 273.848l16.55-28.954-109.644-84.815h-4.131l-110.156 84.815 16.551 28.954 95.155-68.26 95.678 68.26z" />
<glyph unicode="&#xe623;" d="M379.76 123.964h-265.287v195.919h151.788v-35.681h-116.115v-124.56h193.931v46.923h35.683v-82.6zM397.527 242.234h-35.683v34.356l-68.372-68.372-25.219 25.228 68.527 68.52h-34.842v35.677h95.587l0.001-95.409z" />
<glyph unicode="&#xe624;" d="M256 448.938c-123.681 0-223.937-100.26-223.937-223.937 0-123.684 100.256-223.939 223.937-223.939 123.672 0 223.938 100.255 223.938 223.939 0 123.677-100.267 223.937-223.939 223.937zM296.892 128.613l-28.955-16.55-84.816 109.645v4.132l84.816 110.157 28.956-16.553-68.26-95.155 68.26-95.678z" />
<glyph unicode="&#xe625;" d="M296.892 128.613l-28.955-16.55-84.816 109.645v4.132l84.816 110.157 28.956-16.553-68.26-95.155 68.26-95.678z" />
<glyph unicode="&#xe626;" d="M416 416h-320c-52.8 0-96-43.2-96-96v-192c0-52.8 43.2-96 96-96h320c52.8 0 96 43.2 96 96v192c0 52.8-43.2 96-96 96zM480 128c0-16.989-6.687-33.031-18.827-45.173-12.142-12.14-28.183-18.827-45.173-18.827h-320c-16.989 0-33.031 6.687-45.172 18.827-12.141 12.142-18.828 28.184-18.828 45.173v192c0 16.989 6.687 33.031 18.828 45.172s28.183 18.828 45.172 18.828h320c16.989 0 33.031-6.687 45.173-18.828s18.827-28.183 18.827-45.172v-192zM192 96l160 128-160 128z" />
<glyph unicode="&#xe627;" d="M416 416h-320c-52.8 0-96-43.2-96-96v-192c0-52.8 43.2-96 96-96h320c52.8 0 96 43.2 96 96v192c0 52.8-43.2 96-96 96zM192 96v256l160-128-160-128z" />
<glyph unicode="&#xe628;" d="M512 382.791c-18.838-8.354-39.082-14.001-60.33-16.54 21.686 13 38.343 33.585 46.186 58.115-20.298-12.039-42.778-20.78-66.705-25.49-19.16 20.415-46.461 33.17-76.673 33.17-58.011 0-105.044-47.029-105.044-105.039 0-8.233 0.929-16.25 2.72-23.939-87.3 4.382-164.701 46.2-216.509 109.753-9.042-15.514-14.223-33.558-14.223-52.809 0-36.444 18.544-68.596 46.73-87.433-17.219 0.546-33.416 5.271-47.577 13.139-0.010-0.438-0.010-0.878-0.010-1.321 0-50.894 36.209-93.348 84.261-103-8.813-2.4-18.094-3.686-27.674-3.686-6.769 0-13.349 0.66-19.764 1.886 13.368-41.73 52.16-72.103 98.126-72.948-35.95-28.175-81.243-44.967-130.458-44.967-8.479 0-16.84 0.497-25.058 1.47 46.486-29.805 101.701-47.197 161.021-47.197 193.211 0 298.868 160.062 298.868 298.872 0 4.554-0.103 9.084-0.305 13.59 20.528 14.81 38.336 33.31 52.418 54.374z" />
<glyph unicode="&#xe629;" d="M426.671 480h-341.328c-46.937 0-85.343-38.405-85.343-85.345v-341.311c0-46.969 38.406-85.344 85.343-85.344h341.328c46.938 0 85.329 38.375 85.329 85.345v341.31c0 46.94-38.391 85.345-85.329 85.345zM419.026 309.083c0.164-3.671 0.245-7.364 0.245-11.074 0-113.107-84.608-243.534-239.329-243.534-47.502 0-91.717 14.174-128.943 38.459 6.58-0.794 13.276-1.197 20.065-1.197 39.411 0 75.679 13.685 104.467 36.641-36.808 0.69-67.872 25.438-78.577 59.441 5.137-1 10.406-1.537 15.826-1.537 7.672 0 15.103 1.048 22.16 3.004-38.48 7.866-67.475 42.458-67.475 83.928 0 0.361 0 0.719 0.008 1.076 11.34-6.41 24.312-10.26 38.1-10.705-22.571 15.349-37.421 41.546-37.421 71.244 0 15.685 4.147 30.389 11.389 43.029 41.487-51.785 103.468-85.86 173.377-89.431-1.435 6.266-2.179 12.798-2.179 19.507 0 47.269 37.663 85.59 84.115 85.59 24.195 0 46.059-10.393 61.401-27.029 19.16 3.838 37.162 10.96 53.416 20.771-6.281-19.988-19.617-36.761-36.983-47.355 17.013 2.069 33.226 6.67 48.31 13.477-11.273-17.162-25.535-32.238-41.972-44.305z" />
</font>
</defs>
</svg>
