<?xml version="1.0" encoding="utf-8"?>
<!-- Generator: Adobe Illustrator 18.0.0, SVG Export Plug-In . SVG Version: 6.00 Build 0)  -->
<!DOCTYPE svg PUBLIC "-//W3C//DTD SVG 1.1//EN" "http://www.w3.org/Graphics/SVG/1.1/DTD/svg11.dtd">
<svg version="1.1" id="Layer_1" xmlns="http://www.w3.org/2000/svg" xmlns:xlink="http://www.w3.org/1999/xlink" x="0px" y="0px"
	 viewBox="0 0 332 74" enable-background="new 0 0 332 74" xml:space="preserve">
<path fill="#544A46" d="M3.5,37.2h3.6v-36H3.5V37.2L3.5,37.2z"/>
<g>
	<path fill="#544A46" d="M51.2,37.2h3.6v-36H51L37.6,21.3L24.1,1.1h-3.8v36h3.5V7.1l13.7,20L51.2,7V37.2L51.2,37.2z"/>
</g>
<g>
	<path fill="#544A46" d="M67.7,37.2h3.6V4.5h9.5c6.3,0,10.1,3.1,10.1,8.2c0,5-4.1,8.3-10.3,8.3h-4.5L75,24.3h5.5
		c6.5,0,14.1-3.1,14.1-11.7c0-7-5.1-11.4-13.4-11.4H67.7V37.2L67.7,37.2z"/>
</g>
<g>
	<path fill="#544A46" d="M104.7,37.2h24.1l-1-3.3h-19.5V1.1h-3.6V37.2L104.7,37.2z"/>
</g>
<g>
	<path fill="#544A46" d="M138.5,37.2h26.2l-1.1-3.3h-21.5V20.6h17.1l1.1-3.3h-18.2v-13h21.2l1.1-3.3h-25.9V37.2L138.5,37.2z"/>
</g>
<g>
	<path fill="#544A46" d="M206.4,37.2h3.6v-36h-3.8l-13.4,20.1L179.3,1.1h-3.8v36h3.5V7.1l13.7,20L206.4,7V37.2L206.4,37.2z"/>
</g>
<g>
	<path fill="#544A46" d="M222.9,37.2h26.2l-1.1-3.3h-21.5V20.6h17.1l1.1-3.3h-18.2v-13h21.2l1.1-3.3h-25.9V37.2L222.9,37.2z"/>
</g>
<g>
	<path fill="#544A46" d="M287.4,37.2h2.9v-36h-3.5v29.7L263.4,1.1h-3.5v36h3.5V6.7L287.4,37.2L287.4,37.2z"/>
</g>
<g>
	<path fill="#544A46" d="M312.9,37.2h3.7V4.5h12l1.1-3.3h-29.9l1.1,3.3h12V37.2L312.9,37.2z"/>
</g>
<g>
	<path fill="#9F9489" d="M11.3,71c-5.3,0-9.2-4.2-9.2-9.5c0-5.3,3.9-9.5,9.3-9.5c3.3,0,5.3,1.2,7.2,2.9l-1.4,1.5
		c-1.6-1.5-3.3-2.5-5.8-2.5c-4.1,0-7.1,3.3-7.1,7.6s3.1,7.6,7.1,7.6c2.5,0,4.2-1,5.9-2.7l1.4,1.3C16.8,69.7,14.7,71,11.3,71z"/>
	<path fill="#9F9489" d="M33.1,71c-5.6,0-9.4-4.4-9.4-9.5c0-5.1,3.8-9.5,9.4-9.5c5.6,0,9.4,4.4,9.4,9.5C42.5,66.6,38.7,71,33.1,71z
		 M33.1,53.9c-4.2,0-7.2,3.4-7.2,7.6s3,7.6,7.3,7.6c4.2,0,7.2-3.4,7.2-7.6S37.3,53.9,33.1,53.9z"/>
	<path fill="#9F9489" d="M62.6,52.3h2v18.4H63L51.1,55.6v15.1h-2V52.3H51l11.6,14.7V52.3z"/>
	<path fill="#9F9489" d="M79.8,60.5c4.1,0.9,6,2.4,6,5.2c0,3.2-2.6,5.2-6.3,5.2c-2.9,0-5.3-1-7.5-2.9l1.3-1.5
		c1.9,1.7,3.8,2.6,6.3,2.6c2.5,0,4.1-1.3,4.1-3.2c0-1.7-0.9-2.7-4.8-3.5c-4.2-0.9-6.2-2.3-6.2-5.3c0-2.9,2.5-5,6-5
		c2.7,0,4.6,0.8,6.5,2.3L84,55.9c-1.7-1.4-3.4-2-5.3-2c-2.4,0-3.9,1.3-3.9,3C74.8,58.7,75.8,59.6,79.8,60.5z"/>
	<path fill="#9F9489" d="M108.3,62.8c0,5.4-3.1,8.1-7.7,8.1c-4.5,0-7.6-2.8-7.6-8V52.3h2.1v10.6c0,4,2.1,6.2,5.6,6.2
		c3.4,0,5.5-2,5.5-6.1V52.3h2.1V62.8z"/>
	<path fill="#9F9489" d="M116.8,52.3h2.1v16.5h10.4v1.9h-12.4V52.3z"/>
	<path fill="#9F9489" d="M138.9,70.7h-2.1V54.2h-6.2v-1.9H145v1.9h-6.2V70.7z"/>
	<path fill="#9F9489" d="M154.1,52.3v18.4h-2.1V52.3H154.1z"/>
	<path fill="#9F9489" d="M176.4,52.3h2v18.4h-1.7l-11.9-15.1v15.1h-2V52.3h1.9l11.6,14.7V52.3z"/>
	<path fill="#9F9489" d="M195.6,71c-5.8,0-9.4-4.2-9.4-9.5c0-5.1,3.7-9.5,9.2-9.5c3.1,0,5,0.9,6.9,2.4L201,56
		c-1.4-1.2-3-2.1-5.6-2.1c-4.1,0-7,3.4-7,7.6c0,4.4,2.8,7.7,7.3,7.7c2.1,0,4-0.8,5.3-1.8v-4.6h-5.6v-1.9h7.6v7.3
		C201.3,69.7,198.7,71,195.6,71z"/>
	<path fill="#9F9489" d="M231.2,71c-5.8,0-9.4-4.2-9.4-9.5c0-5.1,3.7-9.5,9.2-9.5c3.1,0,5,0.9,6.9,2.4l-1.3,1.6
		c-1.4-1.2-3-2.1-5.6-2.1c-4.1,0-7,3.4-7,7.6c0,4.4,2.8,7.7,7.3,7.7c2.1,0,4-0.8,5.3-1.8v-4.6H231v-1.9h7.6v7.3
		C236.8,69.7,234.3,71,231.2,71z"/>
	<path fill="#9F9489" d="M259.2,70.7l-5.3-7.1h-5.3v7.1h-2.1V52.3h7.9c4,0,6.7,2.2,6.7,5.5c0,3.1-2.1,4.9-5,5.4l5.7,7.5H259.2z
		 M254.3,54.2h-5.7v7.5h5.7c2.8,0,4.7-1.4,4.7-3.8C259,55.6,257.3,54.2,254.3,54.2z"/>
	<path fill="#9F9489" d="M276.6,71c-5.6,0-9.4-4.4-9.4-9.5c0-5.1,3.8-9.5,9.4-9.5c5.6,0,9.4,4.4,9.4,9.5C286,66.6,282.2,71,276.6,71
		z M276.6,53.9c-4.2,0-7.2,3.4-7.2,7.6s3.1,7.6,7.3,7.6c4.2,0,7.2-3.4,7.2-7.6S280.8,53.9,276.6,53.9z"/>
	<path fill="#9F9489" d="M307.9,62.8c0,5.4-3.1,8.1-7.7,8.1c-4.5,0-7.7-2.8-7.7-8V52.3h2.1v10.6c0,4,2.1,6.2,5.6,6.2
		c3.4,0,5.5-2,5.5-6.1V52.3h2.1V62.8z"/>
	<path fill="#9F9489" d="M322.7,64.2h-4.5v6.5h-2.1V52.3h6.9c4.2,0,6.9,2.2,6.9,5.9C329.9,62.2,326.6,64.2,322.7,64.2z M322.8,54.2
		h-4.7v8.1h4.5c3,0,5-1.6,5-4.1C327.8,55.6,325.8,54.2,322.8,54.2z"/>
</g>
</svg>
