<?xml version="1.0" encoding="utf-8"?>
<!-- Generator: Adobe Illustrator 18.0.0, SVG Export Plug-In . SVG Version: 6.00 Build 0)  -->
<!DOCTYPE svg PUBLIC "-//W3C//DTD SVG 1.1//EN" "http://www.w3.org/Graphics/SVG/1.1/DTD/svg11.dtd">
<svg version="1.1" id="Layer_1" xmlns="http://www.w3.org/2000/svg" xmlns:xlink="http://www.w3.org/1999/xlink" x="0px" y="0px"
	 viewBox="0 0 332 74" enable-background="new 0 0 332 74" xml:space="preserve">
<path fill="#FFFFFF" d="M6.5,37.7h3.6V2.2H6.5V37.7L6.5,37.7z"/>
<g>
	<path fill="#FFFFFF" d="M53.6,37.7h3.6V2.2h-3.7L40.1,22.1L26.9,2.2h-3.7v35.5h3.5V8.1l13.5,19.8L53.6,8V37.7L53.6,37.7z"/>
</g>
<g>
	<path fill="#FFFFFF" d="M69.9,37.7h3.6V5.5h9.4c6.2,0,9.9,3,9.9,8.1c0,4.9-4.1,8.2-10.1,8.2h-4.4L77,25h5.4c6.4,0,13.9-3,13.9-11.6
		c0-6.9-5.1-11.2-13.2-11.2H69.9V37.7L69.9,37.7z"/>
</g>
<g>
	<path fill="#FFFFFF" d="M106.3,37.7h23.8l-1-3.3h-19.2V2.2h-3.6V37.7L106.3,37.7z"/>
</g>
<g>
	<path fill="#FFFFFF" d="M139.6,37.7h25.8l-1.1-3.2h-21.2V21.4h16.9l1.1-3.2h-17.9V5.4h20.9l1.1-3.2h-25.5V37.7L139.6,37.7z"/>
</g>
<g>
	<path fill="#FFFFFF" d="M206.6,37.7h3.6V2.2h-3.7l-13.3,19.9L179.9,2.2h-3.7v35.5h3.5V8.1l13.5,19.8L206.6,8V37.7L206.6,37.7z"/>
</g>
<g>
	<path fill="#FFFFFF" d="M222.9,37.7h25.8l-1.1-3.2h-21.2V21.4h16.9l1.1-3.2h-17.9V5.4h20.9l1.1-3.2h-25.5V37.7L222.9,37.7z"/>
</g>
<g>
	<path fill="#FFFFFF" d="M286.5,37.7h2.9V2.2h-3.5v29.3L262.9,2.2h-3.4v35.5h3.5v-30L286.5,37.7L286.5,37.7z"/>
</g>
<g>
	<path fill="#FFFFFF" d="M311.7,37.7h3.6V5.5h11.9l1.1-3.3h-29.5l1.1,3.3h11.9V37.7L311.7,37.7z"/>
</g>
<g>
	<path fill="#9F9489" d="M14.3,71.1c-5.2,0-9.1-4.1-9.1-9.4c0-5.2,3.8-9.4,9.2-9.4c3.3,0,5.3,1.2,7.1,2.9L20,56.7
		c-1.5-1.5-3.2-2.5-5.7-2.5c-4,0-7,3.2-7,7.5s3,7.5,7,7.5c2.5,0,4.1-1,5.9-2.6l1.3,1.3C19.6,69.8,17.5,71.1,14.3,71.1z"/>
	<path fill="#9F9489" d="M35.7,71.1c-5.5,0-9.2-4.3-9.2-9.4c0-5,3.8-9.4,9.3-9.4c5.5,0,9.2,4.3,9.2,9.4C45,66.7,41.3,71.1,35.7,71.1
		z M35.7,54.2c-4.1,0-7.1,3.3-7.1,7.5s3,7.5,7.2,7.5c4.1,0,7.1-3.3,7.1-7.5S39.9,54.2,35.7,54.2z"/>
	<path fill="#9F9489" d="M64.8,52.7h2v18.1h-1.6L53.5,55.9v14.9h-2V52.7h1.9l11.4,14.5V52.7z"/>
	<path fill="#9F9489" d="M81.8,60.7c4,0.9,5.9,2.4,5.9,5.2c0,3.1-2.6,5.2-6.2,5.2c-2.9,0-5.2-1-7.4-2.9l1.3-1.5
		c1.9,1.7,3.7,2.6,6.2,2.6c2.4,0,4-1.3,4-3.1c0-1.7-0.9-2.7-4.7-3.5c-4.2-0.9-6.1-2.3-6.1-5.3c0-2.9,2.5-5,6-5
		c2.6,0,4.5,0.8,6.4,2.2l-1.2,1.6c-1.7-1.4-3.4-2-5.2-2c-2.4,0-3.9,1.3-3.9,3C76.8,58.9,77.8,59.9,81.8,60.7z"/>
	<path fill="#9F9489" d="M109.9,63.1c0,5.3-3,8-7.6,8c-4.5,0-7.5-2.7-7.5-7.9V52.7h2v10.4c0,3.9,2.1,6.1,5.5,6.1c3.3,0,5.5-2,5.5-6
		V52.7h2V63.1z"/>
	<path fill="#9F9489" d="M118.3,52.7h2v16.3h10.2v1.9h-12.3V52.7z"/>
	<path fill="#9F9489" d="M140,70.8h-2.1V54.5h-6.1v-1.9h14.3v1.9H140V70.8z"/>
	<path fill="#9F9489" d="M155.1,52.7v18.1h-2V52.7H155.1z"/>
	<path fill="#9F9489" d="M177.1,52.7h2v18.1h-1.6l-11.7-14.9v14.9h-2V52.7h1.9l11.4,14.5V52.7z"/>
	<path fill="#9F9489" d="M195.9,71.1c-5.7,0-9.2-4.1-9.2-9.4c0-5,3.7-9.4,9.1-9.4c3.1,0,5,0.9,6.8,2.4l-1.3,1.6
		c-1.4-1.2-3-2.1-5.5-2.1c-4,0-6.9,3.4-6.9,7.5c0,4.4,2.8,7.6,7.2,7.6c2.1,0,4-0.8,5.2-1.8v-4.5h-5.5v-1.8h7.5v7.2
		C201.5,69.8,199,71.1,195.9,71.1z"/>
	<path fill="#9F9489" d="M231.1,71.1c-5.7,0-9.2-4.1-9.2-9.4c0-5,3.7-9.4,9.1-9.4c3.1,0,5,0.9,6.8,2.4l-1.3,1.6
		c-1.4-1.2-3-2.1-5.5-2.1c-4,0-6.9,3.4-6.9,7.5c0,4.4,2.8,7.6,7.2,7.6c2.1,0,4-0.8,5.2-1.8v-4.5h-5.5v-1.8h7.5v7.2
		C236.7,69.8,234.1,71.1,231.1,71.1z"/>
	<path fill="#9F9489" d="M258.7,70.8l-5.3-7.1h-5.2v7.1h-2V52.7h7.8c4,0,6.6,2.2,6.6,5.4c0,3-2.1,4.8-4.9,5.3l5.6,7.4H258.7z
		 M253.8,54.5h-5.6v7.4h5.6c2.7,0,4.7-1.4,4.7-3.8C258.5,55.9,256.8,54.5,253.8,54.5z"/>
	<path fill="#9F9489" d="M275.8,71.1c-5.5,0-9.2-4.3-9.2-9.4c0-5,3.8-9.4,9.3-9.4c5.5,0,9.2,4.3,9.2,9.4
		C285.1,66.7,281.3,71.1,275.8,71.1z M275.8,54.2c-4.1,0-7.1,3.3-7.1,7.5s3,7.5,7.2,7.5c4.1,0,7.1-3.3,7.1-7.5S280,54.2,275.8,54.2z
		"/>
	<path fill="#9F9489" d="M306.7,63.1c0,5.3-3,8-7.6,8c-4.5,0-7.5-2.7-7.5-7.9V52.7h2v10.4c0,3.9,2.1,6.1,5.5,6.1c3.3,0,5.5-2,5.5-6
		V52.7h2V63.1z"/>
	<path fill="#9F9489" d="M321.3,64.4h-4.4v6.4h-2V52.7h6.8c4.1,0,6.8,2.2,6.8,5.8C328.4,62.4,325.1,64.4,321.3,64.4z M321.5,54.5
		h-4.6v8h4.5c3,0,5-1.6,5-4C326.3,55.9,324.4,54.5,321.5,54.5z"/>
</g>
</svg>
